<svg width="25" height="25" viewBox="0 0 25 25" fill="none" xmlns="http://www.w3.org/2000/svg">
<rect width="25" height="25" rx="5" fill="#8463EF"/>
<g clip-path="url(#clip0_20_14)">
<path d="M21 13.049C21 8.60302 17.418 4.99902 13 4.99902C8.57999 5.00002 4.99799 8.60302 4.99799 13.05C4.99799 17.067 7.92399 20.397 11.748 21.001V15.376H9.71799V13.05H11.75V11.275C11.75 9.25802 12.945 8.14402 14.772 8.14402C15.648 8.14402 16.563 8.30102 16.563 8.30102V10.281H15.554C14.561 10.281 14.251 10.902 14.251 11.539V13.049H16.469L16.115 15.375H14.25V21C18.074 20.396 21 17.066 21 13.049Z" fill="white"/>
</g>
<defs>
<clipPath id="clip0_20_14">
<rect width="16" height="16" fill="white" transform="translate(5 5)"/>
</clipPath>
</defs>
</svg>
