<svg width="25" height="25" viewBox="0 0 25 25" fill="none" xmlns="http://www.w3.org/2000/svg">
<rect width="25" height="25" rx="5" fill="#8463EF"/>
<g clip-path="url(#clip0_20_12)">
<path d="M13 5C8.58 5 5 8.58 5 13C5 16.54 7.29 19.53 10.47 20.59C10.87 20.66 11.02 20.42 11.02 20.21C11.02 20.02 11.01 19.39 11.01 18.72C9 19.09 8.48 18.23 8.32 17.78C8.23 17.55 7.84 16.84 7.5 16.65C7.22 16.5 6.82 16.13 7.49 16.12C8.12 16.11 8.57 16.7 8.72 16.94C9.44 18.15 10.59 17.81 11.05 17.6C11.12 17.08 11.33 16.73 11.56 16.53C9.78 16.33 7.92 15.64 7.92 12.58C7.92 11.71 8.23 10.99 8.74 10.43C8.66 10.23 8.38 9.41 8.82 8.31C8.82 8.31 9.49 8.1 11.02 9.13C11.66 8.95 12.34 8.86 13.02 8.86C13.7 8.86 14.38 8.95 15.02 9.13C16.55 8.09 17.22 8.31 17.22 8.31C17.66 9.41 17.38 10.23 17.3 10.43C17.81 10.99 18.12 11.7 18.12 12.58C18.12 15.65 16.25 16.33 14.47 16.53C14.76 16.78 15.01 17.26 15.01 18.01C15.01 19.08 15 19.94 15 20.21C15 20.42 15.15 20.67 15.55 20.59C17.1382 20.054 18.5183 19.0333 19.496 17.6718C20.4737 16.3102 20.9997 14.6762 21 13C21 8.58 17.42 5 13 5Z" fill="white"/>
</g>
<defs>
<clipPath id="clip0_20_12">
<rect width="16" height="16" fill="white" transform="translate(5 5)"/>
</clipPath>
</defs>
</svg>
