<svg width="25" height="25" viewBox="0 0 25 25" fill="none" xmlns="http://www.w3.org/2000/svg">
<rect width="25" height="25" rx="5" fill="#8463EF"/>
<g clip-path="url(#clip0_20_13)">
<path d="M13 5C10.829 5 10.556 5.01 9.703 5.048C8.85 5.088 8.269 5.222 7.76 5.42C7.22609 5.62082 6.74249 5.93583 6.343 6.343C5.93608 6.7427 5.62111 7.22624 5.42 7.76C5.222 8.268 5.087 8.85 5.048 9.7C5.01 10.555 5 10.827 5 13.001C5 15.173 5.01 15.445 5.048 16.298C5.088 17.15 5.222 17.731 5.42 18.24C5.625 18.766 5.898 19.212 6.343 19.657C6.787 20.102 7.233 20.376 7.759 20.58C8.269 20.778 8.849 20.913 9.701 20.952C10.555 20.99 10.827 21 13 21C15.173 21 15.444 20.99 16.298 20.952C17.149 20.912 17.732 20.778 18.241 20.58C18.7746 20.3791 19.2578 20.0641 19.657 19.657C20.102 19.212 20.375 18.766 20.58 18.24C20.777 17.731 20.912 17.15 20.952 16.298C20.99 15.445 21 15.173 21 13C21 10.827 20.99 10.555 20.952 9.701C20.912 8.85 20.777 8.268 20.58 7.76C20.3789 7.22623 20.0639 6.74268 19.657 6.343C19.2576 5.93568 18.774 5.62065 18.24 5.42C17.73 5.222 17.148 5.087 16.297 5.048C15.443 5.01 15.172 5 12.998 5H13.001H13ZM12.283 6.442H13.001C15.137 6.442 15.39 6.449 16.233 6.488C17.013 6.523 17.437 6.654 17.719 6.763C18.092 6.908 18.359 7.082 18.639 7.362C18.919 7.642 19.092 7.908 19.237 8.282C19.347 8.563 19.477 8.987 19.512 9.767C19.551 10.61 19.559 10.863 19.559 12.998C19.559 15.133 19.551 15.387 19.512 16.23C19.477 17.01 19.346 17.433 19.237 17.715C19.1087 18.0624 18.904 18.3764 18.638 18.634C18.358 18.914 18.092 19.087 17.718 19.232C17.438 19.342 17.014 19.472 16.233 19.508C15.39 19.546 15.137 19.555 13.001 19.555C10.865 19.555 10.611 19.546 9.768 19.508C8.988 19.472 8.565 19.342 8.283 19.232C7.9355 19.1039 7.62113 18.8996 7.363 18.634C7.09675 18.376 6.89172 18.0617 6.763 17.714C6.654 17.433 6.523 17.009 6.488 16.229C6.45 15.386 6.442 15.133 6.442 12.996C6.442 10.86 6.45 10.608 6.488 9.765C6.524 8.985 6.654 8.561 6.764 8.279C6.909 7.906 7.083 7.639 7.363 7.359C7.643 7.079 7.909 6.906 8.283 6.761C8.565 6.651 8.988 6.521 9.768 6.485C10.506 6.451 10.792 6.441 12.283 6.44V6.442ZM17.271 7.77C17.1449 7.77 17.0201 7.79483 16.9036 7.84308C16.7872 7.89132 16.6813 7.96203 16.5922 8.05118C16.503 8.14032 16.4323 8.24615 16.3841 8.36262C16.3358 8.4791 16.311 8.60393 16.311 8.73C16.311 8.85607 16.3358 8.9809 16.3841 9.09738C16.4323 9.21385 16.503 9.31968 16.5922 9.40882C16.6813 9.49797 16.7872 9.56868 16.9036 9.61692C17.0201 9.66517 17.1449 9.69 17.271 9.69C17.5256 9.69 17.7698 9.58886 17.9498 9.40882C18.1299 9.22879 18.231 8.98461 18.231 8.73C18.231 8.47539 18.1299 8.23121 17.9498 8.05118C17.7698 7.87114 17.5256 7.77 17.271 7.77ZM13.001 8.892C12.4561 8.8835 11.9149 8.98349 11.409 9.18614C10.9031 9.3888 10.4425 9.69007 10.0542 10.0724C9.66579 10.4548 9.35736 10.9106 9.14684 11.4133C8.93632 11.916 8.8279 12.4555 8.8279 13.0005C8.8279 13.5455 8.93632 14.085 9.14684 14.5877C9.35736 15.0904 9.66579 15.5462 10.0542 15.9286C10.4425 16.3109 10.9031 16.6122 11.409 16.8149C11.9149 17.0175 12.4561 17.1175 13.001 17.109C14.0795 17.0922 15.1082 16.6519 15.865 15.8833C16.6217 15.1146 17.0459 14.0792 17.0459 13.0005C17.0459 11.9218 16.6217 10.8864 15.865 10.1177C15.1082 9.34909 14.0795 8.90883 13.001 8.892ZM13.001 10.333C13.7083 10.333 14.3867 10.614 14.8869 11.1141C15.387 11.6143 15.668 12.2927 15.668 13C15.668 13.7073 15.387 14.3857 14.8869 14.8859C14.3867 15.386 13.7083 15.667 13.001 15.667C12.2937 15.667 11.6153 15.386 11.1151 14.8859C10.615 14.3857 10.334 13.7073 10.334 13C10.334 12.2927 10.615 11.6143 11.1151 11.1141C11.6153 10.614 12.2937 10.333 13.001 10.333Z" fill="white"/>
</g>
<defs>
<clipPath id="clip0_20_13">
<rect width="16" height="16" fill="white" transform="translate(5 5)"/>
</clipPath>
</defs>
</svg>
