<svg width="40" height="40" viewBox="0 0 40 40" fill="none" xmlns="http://www.w3.org/2000/svg">
<g clip-path="url(#clip0_14_33)">
<path fill-rule="evenodd" clip-rule="evenodd" d="M15 31.25C15 31.5815 15.1317 31.8995 15.3661 32.1339C15.6005 32.3683 15.9185 32.5 16.25 32.5H36.25C36.5815 32.5 36.8995 32.3683 37.1339 32.1339C37.3683 31.8995 37.5 31.5815 37.5 31.25V8.75C37.5 8.41848 37.3683 8.10054 37.1339 7.86612C36.8995 7.6317 36.5815 7.5 36.25 7.5H16.25C15.9185 7.5 15.6005 7.6317 15.3661 7.86612C15.1317 8.10054 15 8.41848 15 8.75V13.75C15 14.0815 14.8683 14.3995 14.6339 14.6339C14.3995 14.8683 14.0815 15 13.75 15C13.4185 15 13.1005 14.8683 12.8661 14.6339C12.6317 14.3995 12.5 14.0815 12.5 13.75V8.75C12.5 7.75544 12.8951 6.80161 13.5983 6.09835C14.3016 5.39509 15.2554 5 16.25 5H36.25C37.2446 5 38.1984 5.39509 38.9017 6.09835C39.6049 6.80161 40 7.75544 40 8.75V31.25C40 32.2446 39.6049 33.1984 38.9017 33.9017C38.1984 34.6049 37.2446 35 36.25 35H16.25C15.2554 35 14.3016 34.6049 13.5983 33.9017C12.8951 33.1984 12.5 32.2446 12.5 31.25V26.25C12.5 25.9185 12.6317 25.6005 12.8661 25.3661C13.1005 25.1317 13.4185 25 13.75 25C14.0815 25 14.3995 25.1317 14.6339 25.3661C14.8683 25.6005 15 25.9185 15 26.25V31.25Z" fill="white"/>
<path fill-rule="evenodd" clip-rule="evenodd" d="M0.364915 20.885C0.248507 20.7689 0.15615 20.6309 0.0931338 20.4791C0.0301177 20.3272 -0.00231934 20.1644 -0.00231934 20C-0.00231934 19.8356 0.0301177 19.6728 0.0931338 19.5209C0.15615 19.369 0.248507 19.2311 0.364915 19.115L7.86492 11.615C7.98114 11.4988 8.11911 11.4066 8.27096 11.3437C8.42281 11.2808 8.58556 11.2484 8.74992 11.2484C8.91428 11.2484 9.07703 11.2808 9.22887 11.3437C9.38072 11.4066 9.5187 11.4988 9.63492 11.615C9.75114 11.7312 9.84333 11.8692 9.90622 12.021C9.96912 12.1729 10.0015 12.3356 10.0015 12.5C10.0015 12.6644 9.96912 12.8271 9.90622 12.979C9.84333 13.1308 9.75114 13.2688 9.63492 13.385L4.26742 18.75H26.2499C26.5814 18.75 26.8994 18.8817 27.1338 19.1161C27.3682 19.3505 27.4999 19.6685 27.4999 20C27.4999 20.3315 27.3682 20.6495 27.1338 20.8839C26.8994 21.1183 26.5814 21.25 26.2499 21.25H4.26742L9.63492 26.615C9.75114 26.7312 9.84333 26.8692 9.90622 27.021C9.96912 27.1729 10.0015 27.3356 10.0015 27.5C10.0015 27.6644 9.96912 27.8271 9.90622 27.979C9.84333 28.1308 9.75114 28.2688 9.63492 28.385C9.5187 28.5012 9.38072 28.5934 9.22887 28.6563C9.07703 28.7192 8.91428 28.7516 8.74992 28.7516C8.58556 28.7516 8.42281 28.7192 8.27096 28.6563C8.11911 28.5934 7.98114 28.5012 7.86492 28.385L0.364915 20.885Z" fill="white"/>
</g>
<defs>
<clipPath id="clip0_14_33">
<rect width="40" height="40" fill="white"/>
</clipPath>
</defs>
</svg>
