<svg width="30" height="30" viewBox="0 0 30 30" fill="none" xmlns="http://www.w3.org/2000/svg">
<g clip-path="url(#clip0_24_203)">
<path d="M13.698 22.7704C13.1022 23.4047 12.2789 23.7764 11.409 23.8037C10.5392 23.831 9.6942 23.5117 9.05985 22.9159C8.4255 22.3201 8.0538 21.4968 8.02651 20.627C7.99922 19.7572 8.31859 18.9121 8.91434 18.2778L17.001 9.66729C17.3585 9.28668 17.8525 9.06365 18.3744 9.04728C18.8963 9.03091 19.4033 9.22253 19.7839 9.57998C20.1645 9.93743 20.3875 10.4314 20.4039 10.9533C20.4203 11.4752 20.2286 11.9822 19.8712 12.3628L13.5815 19.0599C13.4624 19.1868 13.2977 19.2611 13.1238 19.2666C12.9498 19.272 12.7808 19.2082 12.6539 19.089C12.5271 18.9699 12.4527 18.8052 12.4473 18.6312C12.4418 18.4573 12.5057 18.2883 12.6248 18.1614L18.9145 11.4643C19.0336 11.3375 19.0975 11.1684 19.092 10.9945C19.0866 10.8205 19.0122 10.6559 18.8854 10.5367C18.7585 10.4176 18.5895 10.3537 18.4155 10.3591C18.2416 10.3646 18.0769 10.4389 17.9577 10.5658L9.87106 19.1763C9.69407 19.3648 9.55593 19.5862 9.46453 19.8281C9.37313 20.0699 9.33026 20.3274 9.33837 20.5858C9.34647 20.8442 9.4054 21.0985 9.51178 21.3342C9.61816 21.5698 9.76991 21.7822 9.95837 21.9592C10.1468 22.1362 10.3683 22.2743 10.6101 22.3657C10.852 22.4571 11.1095 22.5 11.3679 22.4919C11.6263 22.4838 11.8806 22.4248 12.1162 22.3185C12.3519 22.2121 12.5642 22.0603 12.7412 21.8719L20.8279 13.2614C21.4237 12.627 21.743 11.782 21.7157 10.9122C21.6884 10.0424 21.3167 9.21901 20.6824 8.62326C20.048 8.0275 19.203 7.70814 18.3332 7.73543C17.4634 7.76272 16.64 8.13442 16.0443 8.76877L9.75466 15.4658C9.6355 15.5927 9.47084 15.667 9.29687 15.6725C9.12291 15.678 8.9539 15.6141 8.82703 15.4949C8.70016 15.3758 8.62582 15.2111 8.62037 15.0371C8.61491 14.8632 8.67878 14.6942 8.79793 14.5673L15.0876 7.87025C15.9216 6.98216 17.0743 6.46178 18.292 6.42357C19.5098 6.38537 20.6928 6.83248 21.5809 7.66653C22.469 8.50059 22.9894 9.65328 23.0276 10.871C23.0658 12.0888 22.6187 13.2718 21.7846 14.1599L13.698 22.7704Z" fill="#848484"/>
</g>
<defs>
<clipPath id="clip0_24_203">
<rect width="21" height="21" fill="white" transform="translate(15.3076 29.6839) rotate(-136.797)"/>
</clipPath>
</defs>
</svg>
