<svg width="70" height="70" viewBox="0 0 70 70" fill="none" xmlns="http://www.w3.org/2000/svg">
<g clip-path="url(#clip0_18_69)">
<path d="M35 20.7987C33.1351 20.7987 31.2884 21.1661 29.5654 21.8797C27.8425 22.5934 26.2769 23.6395 24.9582 24.9582C23.6395 26.2769 22.5935 27.8424 21.8798 29.5654C21.1661 31.2884 20.7988 33.1351 20.7988 35C20.7988 36.8649 21.1661 38.7116 21.8798 40.4346C22.5935 42.1575 23.6395 43.7231 24.9582 45.0418C26.2769 46.3605 27.8425 47.4065 29.5654 48.1202C31.2884 48.8339 33.1351 49.2012 35 49.2012C38.7664 49.2012 42.3786 47.705 45.0418 45.0418C47.7051 42.3785 49.2013 38.7664 49.2013 35C49.2013 31.2336 47.7051 27.6214 45.0418 24.9582C42.3786 22.2949 38.7664 20.7987 35 20.7987ZM25.1738 35C25.1738 32.3939 26.209 29.8946 28.0518 28.0518C29.8946 26.209 32.3939 25.1737 35 25.1737C37.6061 25.1737 40.1054 26.209 41.9482 28.0518C43.791 29.8946 44.8263 32.3939 44.8263 35C44.8263 37.6061 43.791 40.1054 41.9482 41.9482C40.1054 43.791 37.6061 44.8262 35 44.8262C32.3939 44.8262 29.8946 43.791 28.0518 41.9482C26.209 40.1054 25.1738 37.6061 25.1738 35Z" fill="white"/>
<path d="M42.8576 5.87567C40.5519 -1.95558 29.4482 -1.95558 27.1426 5.87567L26.7313 7.27129C26.5703 7.81796 26.289 8.32166 25.908 8.74548C25.527 9.16931 25.056 9.5025 24.5296 9.72064C24.0031 9.93879 23.4345 10.0364 22.8654 10.0062C22.2963 9.97601 21.7412 9.81888 21.2407 9.54629L19.9632 8.84629C12.7882 4.94379 4.94382 12.7925 8.8507 19.9632L9.54632 21.2407C9.81891 21.7411 9.97604 22.2963 10.0062 22.8653C10.0364 23.4344 9.93882 24.0031 9.72067 24.5295C9.50253 25.056 9.16934 25.527 8.74551 25.908C8.32169 26.289 7.81799 26.5703 7.27132 26.7313L5.8757 27.1425C-1.95555 29.4482 -1.95555 40.5519 5.8757 42.8575L7.27132 43.2688C7.81799 43.4298 8.32169 43.7111 8.74551 44.0921C9.16934 44.4731 9.50253 44.9441 9.72067 45.4706C9.93882 45.997 10.0364 46.5657 10.0062 47.1347C9.97604 47.7038 9.81891 48.259 9.54632 48.7594L8.84632 50.0369C4.94382 57.2119 12.7882 65.0607 19.9632 61.1494L21.2407 60.4538C21.7412 60.1812 22.2963 60.0241 22.8654 59.9939C23.4345 59.9637 24.0031 60.0613 24.5296 60.2794C25.056 60.4976 25.527 60.8308 25.908 61.2546C26.289 61.6784 26.5703 62.1821 26.7313 62.7288L27.1426 64.1244C29.4482 71.9557 40.5519 71.9557 42.8576 64.1244L43.2688 62.7288C43.4298 62.1821 43.7112 61.6784 44.0921 61.2546C44.4731 60.8308 44.9441 60.4976 45.4706 60.2794C45.9971 60.0613 46.5657 59.9637 47.1348 59.9939C47.7039 60.0241 48.259 60.1812 48.7595 60.4538L50.037 61.1538C57.212 65.0607 65.0607 57.2076 61.1495 50.0369L60.4538 48.7594C60.1812 48.259 60.0241 47.7038 59.9939 47.1347C59.9638 46.5657 60.0613 45.997 60.2795 45.4706C60.4976 44.9441 60.8308 44.4731 61.2546 44.0921C61.6785 43.7111 62.1822 43.4298 62.7288 43.2688L64.1245 42.8575C71.9557 40.5519 71.9557 29.4482 64.1245 27.1425L62.7288 26.7313C62.1822 26.5703 61.6785 26.289 61.2546 25.908C60.8308 25.527 60.4976 25.056 60.2795 24.5295C60.0613 24.0031 59.9638 23.4344 59.9939 22.8653C60.0241 22.2963 60.1812 21.7411 60.4538 21.2407L61.1538 19.9632C65.0607 12.7882 57.2076 4.94379 50.037 8.85067L48.7595 9.54629C48.259 9.81888 47.7039 9.97601 47.1348 10.0062C46.5657 10.0364 45.9971 9.93879 45.4706 9.72064C44.9441 9.5025 44.4731 9.16931 44.0921 8.74548C43.7112 8.32166 43.4298 7.81796 43.2688 7.27129L42.8576 5.87567ZM31.3382 7.11379C32.4144 3.46067 37.5857 3.46067 38.6619 7.11379L39.0732 8.50942C39.4189 9.68229 40.0227 10.7629 40.8404 11.6721C41.658 12.5813 42.6688 13.2959 43.7985 13.7637C44.9283 14.2315 46.1484 14.4405 47.3694 14.3754C48.5905 14.3103 49.7814 13.9728 50.8551 13.3875L52.1282 12.6875C55.4707 10.8719 59.1282 14.525 57.3082 17.8719L56.6126 19.1494C56.0282 20.2232 55.6915 21.414 55.6272 22.6348C55.5628 23.8555 55.7723 25.0752 56.2405 26.2045C56.7086 27.3337 57.4235 28.3439 58.3327 29.1611C59.2419 29.9782 60.3224 30.5816 61.4951 30.9269L62.8863 31.3382C66.5395 32.4144 66.5395 37.5857 62.8863 38.6619L61.4907 39.0732C60.3178 39.4189 59.2372 40.0227 58.328 40.8403C57.4188 41.658 56.7042 42.6687 56.2364 43.7985C55.7687 44.9283 55.5597 46.1484 55.6247 47.3694C55.6898 48.5904 56.0274 49.7814 56.6126 50.855L57.3126 52.1282C59.1282 55.4707 55.4751 59.1282 52.1282 57.3082L50.8551 56.6125C49.7812 56.0274 48.5899 55.69 47.3686 55.6252C46.1474 55.5604 44.9271 55.7698 43.7972 56.238C42.6674 56.7062 41.6567 57.4213 40.8393 58.331C40.0219 59.2407 39.4184 60.3218 39.0732 61.495L38.6619 62.8863C37.5857 66.5394 32.4144 66.5394 31.3382 62.8863L30.9269 61.4907C30.5811 60.3184 29.9774 59.2384 29.16 58.3296C28.3427 57.4209 27.3324 56.7066 26.2032 56.2388C25.074 55.7712 23.8545 55.562 22.634 55.6266C21.4135 55.6913 20.2229 56.0282 19.1494 56.6125L17.8719 57.3125C14.5294 59.1282 10.8719 55.475 12.6919 52.1282L13.3876 50.855C13.9736 49.7812 14.3118 48.5899 14.3773 47.3683C14.4428 46.1468 14.234 44.926 13.7662 43.7957C13.2984 42.6654 12.5834 41.6542 11.6738 40.8362C10.7642 40.0183 9.68293 39.4144 8.50945 39.0688L7.11382 38.6575C3.4607 37.5813 3.4607 32.41 7.11382 31.3338L8.50945 30.9225C9.6811 30.5765 10.7606 29.9729 11.6688 29.1559C12.5771 28.3388 13.2912 27.329 13.7588 26.2004C14.2264 25.0718 14.4358 23.8529 14.3716 22.6329C14.3073 21.4129 13.9711 20.2227 13.3876 19.1494L12.6876 17.8719C10.8719 14.5294 14.5251 10.8719 17.8719 12.6919L19.1494 13.3875C20.2229 13.9719 21.4135 14.3088 22.634 14.3735C23.8545 14.4381 25.074 14.2289 26.2032 13.7612C27.3324 13.2935 28.3427 12.5792 29.16 11.6704C29.9774 10.7617 30.5811 9.68168 30.9269 8.50942L31.3382 7.11379Z" fill="white"/>
</g>
<defs>
<clipPath id="clip0_18_69">
<rect width="70" height="70" fill="white"/>
</clipPath>
</defs>
</svg>
