<svg width="70" height="70" viewBox="0 0 70 70" fill="none" xmlns="http://www.w3.org/2000/svg">
<g clip-path="url(#clip0_18_73)">
<path d="M12.9938 5.90625C13.4045 5.42603 13.9144 5.04048 14.4884 4.77615C15.0624 4.51181 15.6868 4.37496 16.3188 4.375H53.6813C54.3132 4.37496 54.9376 4.51181 55.5116 4.77615C56.0856 5.04048 56.5955 5.42603 57.0062 5.90625L68.4206 19.2238C69.4398 20.413 69.9999 21.9276 70 23.4937V24.6094C70.0002 26.7749 69.3239 28.8864 68.0655 30.6487C66.807 32.4111 65.0294 33.7362 62.9811 34.4389C60.9327 35.1416 58.716 35.1867 56.6408 34.5681C54.5655 33.9494 52.7354 32.6977 51.4062 30.9881C50.4356 32.2384 49.1917 33.2499 47.7699 33.9453C46.348 34.6407 44.7859 35.0014 43.2031 35C41.6203 35.0018 40.058 34.6411 38.6361 33.9457C37.2142 33.2503 35.9704 32.2386 35 30.9881C34.0296 32.2386 32.7858 33.2503 31.3639 33.9457C29.942 34.6411 28.3797 35.0018 26.7969 35C25.214 35.0018 23.6518 34.6411 22.2299 33.9457C20.808 33.2503 19.5642 32.2386 18.5938 30.9881C17.2646 32.6977 15.4345 33.9494 13.3592 34.5681C11.284 35.1867 9.06726 35.1416 7.01892 34.4389C4.97058 33.7362 3.19297 32.4111 1.93455 30.6487C0.67612 28.8864 -0.000238869 26.7749 6.32824e-08 24.6094V23.4937C5.5158e-05 21.9276 0.560248 20.413 1.57938 19.2238L12.9981 5.90187L12.9938 5.90625ZM20.7812 24.6094C20.7812 26.2048 21.415 27.7349 22.5432 28.8631C23.6713 29.9912 25.2014 30.625 26.7969 30.625C28.3923 30.625 29.9224 29.9912 31.0506 28.8631C32.1787 27.7349 32.8125 26.2048 32.8125 24.6094C32.8125 24.0292 33.043 23.4728 33.4532 23.0626C33.8634 22.6523 34.4198 22.4219 35 22.4219C35.5802 22.4219 36.1366 22.6523 36.5468 23.0626C36.957 23.4728 37.1875 24.0292 37.1875 24.6094C37.1875 26.2048 37.8213 27.7349 38.9494 28.8631C40.0776 29.9912 41.6077 30.625 43.2031 30.625C44.7986 30.625 46.3287 29.9912 47.4568 28.8631C48.585 27.7349 49.2188 26.2048 49.2188 24.6094C49.2188 24.0292 49.4492 23.4728 49.8595 23.0626C50.2697 22.6523 50.8261 22.4219 51.4062 22.4219C51.9864 22.4219 52.5428 22.6523 52.953 23.0626C53.3633 23.4728 53.5938 24.0292 53.5938 24.6094C53.5938 26.2048 54.2275 27.7349 55.3557 28.8631C56.4838 29.9912 58.0139 30.625 59.6094 30.625C61.2048 30.625 62.7349 29.9912 63.8631 28.8631C64.9912 27.7349 65.625 26.2048 65.625 24.6094V23.4937C65.625 22.9724 65.4389 22.4681 65.1 22.0719L53.6813 8.75H16.3188L4.9 22.0719C4.56114 22.4681 4.37496 22.9724 4.375 23.4937V24.6094C4.375 26.2048 5.00879 27.7349 6.13694 28.8631C7.26508 29.9912 8.79518 30.625 10.3906 30.625C11.9861 30.625 13.5162 29.9912 14.6443 28.8631C15.7725 27.7349 16.4062 26.2048 16.4062 24.6094C16.4062 24.0292 16.6367 23.4728 17.047 23.0626C17.4572 22.6523 18.0136 22.4219 18.5938 22.4219C19.1739 22.4219 19.7303 22.6523 20.1405 23.0626C20.5508 23.4728 20.7812 24.0292 20.7812 24.6094ZM6.5625 37.1875C7.14266 37.1875 7.69906 37.418 8.1093 37.8282C8.51953 38.2384 8.75 38.7948 8.75 39.375V65.625H61.25V39.375C61.25 38.7948 61.4805 38.2384 61.8907 37.8282C62.3009 37.418 62.8573 37.1875 63.4375 37.1875C64.0177 37.1875 64.5741 37.418 64.9843 37.8282C65.3945 38.2384 65.625 38.7948 65.625 39.375V65.625H67.8125C68.3927 65.625 68.9491 65.8555 69.3593 66.2657C69.7695 66.6759 70 67.2323 70 67.8125C70 68.3927 69.7695 68.9491 69.3593 69.3593C68.9491 69.7695 68.3927 70 67.8125 70H2.1875C1.60734 70 1.05094 69.7695 0.640704 69.3593C0.230468 68.9491 6.32824e-08 68.3927 6.32824e-08 67.8125C6.32824e-08 67.2323 0.230468 66.6759 0.640704 66.2657C1.05094 65.8555 1.60734 65.625 2.1875 65.625H4.375V39.375C4.375 38.7948 4.60547 38.2384 5.0157 37.8282C5.42594 37.418 5.98234 37.1875 6.5625 37.1875ZM15.3125 39.375C15.8927 39.375 16.4491 39.6055 16.8593 40.0157C17.2695 40.4259 17.5 40.9823 17.5 41.5625V56.875H52.5V41.5625C52.5 40.9823 52.7305 40.4259 53.1407 40.0157C53.5509 39.6055 54.1073 39.375 54.6875 39.375C55.2677 39.375 55.8241 39.6055 56.2343 40.0157C56.6445 40.4259 56.875 40.9823 56.875 41.5625V56.875C56.875 58.0353 56.4141 59.1481 55.5936 59.9686C54.7731 60.7891 53.6603 61.25 52.5 61.25H17.5C16.3397 61.25 15.2269 60.7891 14.4064 59.9686C13.5859 59.1481 13.125 58.0353 13.125 56.875V41.5625C13.125 40.9823 13.3555 40.4259 13.7657 40.0157C14.1759 39.6055 14.7323 39.375 15.3125 39.375Z" fill="white"/>
</g>
<defs>
<clipPath id="clip0_18_73">
<rect width="70" height="70" fill="white"/>
</clipPath>
</defs>
</svg>
