<svg width="16" height="16" viewBox="0 0 16 16" fill="none" xmlns="http://www.w3.org/2000/svg">
<g clip-path="url(#clip0_18_115)">
<path d="M12.146 0.145978C12.1925 0.099415 12.2476 0.0624722 12.3084 0.0372657C12.3691 0.0120593 12.4342 -0.000915527 12.5 -0.000915527C12.5658 -0.000915527 12.6309 0.0120593 12.6916 0.0372657C12.7524 0.0624722 12.8076 0.099415 12.854 0.145978L15.854 3.14598C15.9006 3.19242 15.9375 3.2476 15.9627 3.30834C15.9879 3.36909 16.0009 3.43421 16.0009 3.49998C16.0009 3.56575 15.9879 3.63087 15.9627 3.69161C15.9375 3.75236 15.9006 3.80753 15.854 3.85398L5.854 13.854C5.80602 13.9016 5.74887 13.939 5.686 13.964L0.686004 15.964C0.595141 16.0003 0.4956 16.0093 0.399724 15.9896C0.303848 15.9699 0.215852 15.9225 0.146645 15.8533C0.0774387 15.7841 0.0300652 15.6961 0.0103977 15.6003C-0.00926973 15.5044 -0.00036623 15.4048 0.0360044 15.314L2.036 10.314C2.06093 10.2511 2.09835 10.194 2.146 10.146L12.146 0.145978ZM11.207 2.49998L13.5 4.79298L14.793 3.49998L12.5 1.20698L11.207 2.49998ZM12.793 5.49998L10.5 3.20698L4 9.70698V9.99998H4.5C4.63261 9.99998 4.75979 10.0527 4.85356 10.1464C4.94733 10.2402 5 10.3674 5 10.5V11H5.5C5.63261 11 5.75979 11.0527 5.85356 11.1464C5.94733 11.2402 6 11.3674 6 11.5V12H6.293L12.793 5.49998ZM3.032 10.675L2.926 10.781L1.398 14.602L5.219 13.074L5.325 12.968C5.22962 12.9323 5.1474 12.8684 5.08932 12.7848C5.03124 12.7012 5.00008 12.6018 5 12.5V12H4.5C4.3674 12 4.24022 11.9473 4.14645 11.8535C4.05268 11.7598 4 11.6326 4 11.5V11H3.5C3.39818 10.9999 3.29881 10.9687 3.21518 10.9107C3.13155 10.8526 3.06764 10.7704 3.032 10.675Z" fill="white"/>
</g>
<defs>
<clipPath id="clip0_18_115">
<rect width="16" height="16" fill="white"/>
</clipPath>
</defs>
</svg>
